<svg xmlns="http://www.w3.org/2000/svg" width="3420" height="1290" viewBox="0 0 3420 1290" role="img" aria-labelledby="title desc">
<title id="title">学生反馈洞察工作流</title><desc id="desc">17 个节点，词云、情绪图、问题报告、校园大事记四条支路从左向右连接。</desc>
<defs><pattern id="dots" width="20" height="20" patternUnits="userSpaceOnUse"><circle cx="2" cy="2" r="1" fill="#dfe2eb"/></pattern><marker id="arrow" viewBox="0 0 10 10" refX="9" refY="5" markerWidth="5" markerHeight="5" orient="auto"><path d="M1 1L9 5L1 9" fill="none" stroke="#8071f5" stroke-width="1.8"/></marker></defs>
<g font-family="Noto Sans CJK SC, PingFang SC, Microsoft YaHei, sans-serif">
<rect x="0" y="0" width="3420" height="1290" rx="0" fill="#f7f8fb" stroke="none" />
<rect x="0" y="108" width="3420" height="1182" rx="0" fill="url(#dots)" stroke="none" />
<rect x="0" y="0" width="3420" height="108" rx="0" fill="#fff" stroke="none" />
<rect x="28" y="28" width="44" height="44" rx="10" fill="#6759ff" stroke="none" />
<text x="39" y="58" font-size="24" fill="#fff" font-weight="600">W</text>
<text x="90" y="41" font-size="13" fill="#838797" font-weight="400">工作空间  /  学生会运营  /  工作流</text>
<text x="90" y="77" font-size="24" fill="#252835" font-weight="600">学生反馈洞察工作流</text>
<text x="2752" y="55" font-size="15" fill="#777c8b" font-weight="400">17 节点  ·  4 条并行支路  ·  从左向右</text>
<rect x="3125" y="28" width="267" height="44" rx="8" fill="#f1efff" stroke="none" />
<text x="3145" y="57" font-size="15" fill="#6a5eea" font-weight="500">Coze 风格 · 整理版方案</text>
<rect x="420" y="402" width="750" height="235" rx="12" fill="#f5f5fc" stroke="#e4e3f0" stroke-dasharray="6 5"/>
<text x="438" y="426" font-size="12" fill="#9590aa" font-weight="400">01  数据接入与整理</text>
<rect x="1240" y="122" width="1150" height="235" rx="12" fill="#f5f5fc" stroke="#e4e3f0" stroke-dasharray="6 5"/>
<text x="1258" y="146" font-size="12" fill="#9590aa" font-weight="400">02 词频与词云</text>
<rect x="1240" y="402" width="1150" height="235" rx="12" fill="#f5f5fc" stroke="#e4e3f0" stroke-dasharray="6 5"/>
<text x="1258" y="426" font-size="12" fill="#9590aa" font-weight="400">03 情绪分析与可视化</text>
<rect x="1240" y="682" width="1150" height="235" rx="12" fill="#f5f5fc" stroke="#e4e3f0" stroke-dasharray="6 5"/>
<text x="1258" y="706" font-size="12" fill="#9590aa" font-weight="400">04 问题聚合与建议</text>
<rect x="420" y="972" width="1170" height="236" rx="12" fill="#f5f5fc" stroke="#e4e3f0" stroke-dasharray="6 5"/>
<text x="438" y="996" font-size="12" fill="#9590aa" font-weight="400">05 校园大事记 · 独立材料支路</text>
<text x="48" y="218" font-size="22" fill="#585367" font-weight="600">沿用原工作流，展开关键步骤</text>
<text x="48" y="253" font-size="14" fill="#8a8599" font-weight="400">问卷分析并行展开，公众号材料独立汇总。</text>
<text x="48" y="281" font-size="14" fill="#8a8599" font-weight="400">四路结果在右侧统一组合，保持完整的数据流向。</text>
<text x="48" y="323" font-size="12" fill="#9994a7" font-weight="400">原始素材：90 条反馈  /  3 篇公众号材料</text>
<path d="M350,552.0 C391.4,552.0 398.6,532 440,532" stroke="#8071f5" stroke-width="2.2" fill="none" marker-end="url(#arrow)"/>
<path d="M350,552.0 C391.4,552.0 398.6,1102 440,1102" stroke="#8071f5" stroke-width="2.2" fill="none" marker-end="url(#arrow)"/>
<path d="M750,532.0 C791.4,532.0 798.6,532 840,532" stroke="#8071f5" stroke-width="2.2" fill="none" marker-end="url(#arrow)"/>
<path d="M1150,532.0 C1200.6,532.0 1209.4,252 1260,252" stroke="#8071f5" stroke-width="2.2" fill="none" marker-end="url(#arrow)"/>
<path d="M1150,532.0 C1200.6,532.0 1209.4,532 1260,532" stroke="#8071f5" stroke-width="2.2" fill="none" marker-end="url(#arrow)"/>
<path d="M1150,532.0 C1200.6,532.0 1209.4,812 1260,812" stroke="#8071f5" stroke-width="2.2" fill="none" marker-end="url(#arrow)"/>
<path d="M1570,252.0 C1611.4,252.0 1618.6,252 1660,252" stroke="#8071f5" stroke-width="2.2" fill="none" marker-end="url(#arrow)"/>
<path d="M1970,252.0 C2011.4,252.0 2018.6,252 2060,252" stroke="#8071f5" stroke-width="2.2" fill="none" marker-end="url(#arrow)"/>
<path d="M1570,532.0 C1611.4,532.0 1618.6,532 1660,532" stroke="#8071f5" stroke-width="2.2" fill="none" marker-end="url(#arrow)"/>
<path d="M1970,532.0 C2011.4,532.0 2018.6,532 2060,532" stroke="#8071f5" stroke-width="2.2" fill="none" marker-end="url(#arrow)"/>
<path d="M1570,812.0 C1611.4,812.0 1618.6,812 1660,812" stroke="#8071f5" stroke-width="2.2" fill="none" marker-end="url(#arrow)"/>
<path d="M1970,812.0 C2011.4,812.0 2018.6,812 2060,812" stroke="#8071f5" stroke-width="2.2" fill="none" marker-end="url(#arrow)"/>
<path d="M750,1102.0 C791.4,1102.0 798.6,1102 840,1102" stroke="#8071f5" stroke-width="2.2" fill="none" marker-end="url(#arrow)"/>
<path d="M1150,1102.0 C1200.6,1102.0 1209.4,1102 1260,1102" stroke="#8071f5" stroke-width="2.2" fill="none" marker-end="url(#arrow)"/>
<path d="M2370,252.0 C2471.2,252.0 2488.8,595 2590,595" stroke="#8071f5" stroke-width="2.2" fill="none" marker-end="url(#arrow)"/>
<path d="M2370,532.0 C2471.2,532.0 2488.8,620 2590,620" stroke="#8071f5" stroke-width="2.2" fill="none" marker-end="url(#arrow)"/>
<path d="M2370,812.0 C2471.2,812.0 2488.8,645 2590,645" stroke="#8071f5" stroke-width="2.2" fill="none" marker-end="url(#arrow)"/>
<path d="M1570,1102.0 L2370,1102.0 C2471.2,1102.0 2488.8,670 2590,670" stroke="#8071f5" stroke-width="2.2" fill="none" marker-end="url(#arrow)"/>
<path d="M2900,632.0 C2946.0,632.0 2954.0,632 3000,632" stroke="#8071f5" stroke-width="2.2" fill="none" marker-end="url(#arrow)"/>
<rect x="40" y="473" width="310" height="164" rx="8" fill="#e7e7f0" stroke="none" />
<rect x="40" y="470" width="310" height="164" rx="8" fill="#fff" stroke="#dddeea" />
<rect x="41" y="471" width="308" height="43" rx="7" fill="#f6f2fe" stroke="none" />
<rect x="41" y="506" width="308" height="10" rx="0" fill="#f6f2fe" stroke="none" />
<rect x="51" y="480" width="25" height="25" rx="5" fill="#6759ff" stroke="none" />
<text x="55" y="498" font-size="13" fill="#fff" font-weight="600">↪</text>
<text x="84" y="498" font-size="14" fill="#333442" font-weight="500">开始</text>
<text x="321" y="495" font-size="17" fill="#9596a3" font-weight="400">···</text>
<text x="53" y="535" font-size="11" fill="#a3a8b9" font-weight="400">输入</text>
<rect x="88" y="519" width="244" height="24" rx="4" fill="#f3f4f8" stroke="none" />
<text x="95" y="535" font-size="11" fill="#70768a" font-weight="400">comments · contents</text>
<text x="53" y="567" font-size="11" fill="#a3a8b9" font-weight="400">输出</text>
<rect x="88" y="551" width="244" height="24" rx="4" fill="#f3f4f8" stroke="none" />
<text x="95" y="567" font-size="11" fill="#70768a" font-weight="400">问卷链接 · 文章材料</text>
<text x="53" y="602" font-size="11" fill="#8a8da0" font-weight="400">对应原图两个输入</text>
<text x="53" y="623" font-size="10" fill="#aaaabc" font-weight="400">01 / 开始</text>
<circle cx="350" cy="552.0" r="4.4" fill="#7766ff" stroke="#fff" stroke-width="1.5"/>
<rect x="440" y="453" width="310" height="164" rx="8" fill="#e7e7f0" stroke="none" />
<rect x="440" y="450" width="310" height="164" rx="8" fill="#fff" stroke="#dddeea" />
<rect x="441" y="451" width="308" height="43" rx="7" fill="#f6f2fe" stroke="none" />
<rect x="441" y="486" width="308" height="10" rx="0" fill="#f6f2fe" stroke="none" />
<rect x="451" y="460" width="25" height="25" rx="5" fill="#2588d8" stroke="none" />
<text x="455" y="478" font-size="13" fill="#fff" font-weight="600">▤</text>
<text x="484" y="478" font-size="14" fill="#333442" font-weight="500">读取问卷表格</text>
<text x="721" y="475" font-size="17" fill="#9596a3" font-weight="400">···</text>
<text x="453" y="515" font-size="11" fill="#a3a8b9" font-weight="400">输入</text>
<rect x="488" y="499" width="244" height="24" rx="4" fill="#f3f4f8" stroke="none" />
<text x="495" y="515" font-size="11" fill="#70768a" font-weight="400">comments</text>
<text x="453" y="547" font-size="11" fill="#a3a8b9" font-weight="400">输出</text>
<rect x="488" y="531" width="244" height="24" rx="4" fill="#f3f4f8" stroke="none" />
<text x="495" y="547" font-size="11" fill="#70768a" font-weight="400">records[]</text>
<text x="453" y="582" font-size="11" fill="#8a8da0" font-weight="400">原 read 节点</text>
<text x="453" y="603" font-size="10" fill="#aaaabc" font-weight="400">02 / 插件</text>
<circle cx="440" cy="532" r="4.4" fill="#7766ff" stroke="#fff" stroke-width="1.5"/>
<circle cx="750" cy="532.0" r="4.4" fill="#7766ff" stroke="#fff" stroke-width="1.5"/>
<rect x="840" y="453" width="310" height="164" rx="8" fill="#e7e7f0" stroke="none" />
<rect x="840" y="450" width="310" height="164" rx="8" fill="#fff" stroke="#dddeea" />
<rect x="841" y="451" width="308" height="43" rx="7" fill="#f6f2fe" stroke="none" />
<rect x="841" y="486" width="308" height="10" rx="0" fill="#f6f2fe" stroke="none" />
<rect x="851" y="460" width="25" height="25" rx="5" fill="#4776ed" stroke="none" />
<text x="855" y="478" font-size="13" fill="#fff" font-weight="600">&lt;/&gt;</text>
<text x="884" y="478" font-size="14" fill="#333442" font-weight="500">反馈清洗与脱敏</text>
<text x="1121" y="475" font-size="17" fill="#9596a3" font-weight="400">···</text>
<text x="853" y="515" font-size="11" fill="#a3a8b9" font-weight="400">输入</text>
<rect x="888" y="499" width="244" height="24" rx="4" fill="#f3f4f8" stroke="none" />
<text x="895" y="515" font-size="11" fill="#70768a" font-weight="400">records[]</text>
<text x="853" y="547" font-size="11" fill="#a3a8b9" font-weight="400">输出</text>
<rect x="888" y="531" width="244" height="24" rx="4" fill="#f3f4f8" stroke="none" />
<text x="895" y="547" font-size="11" fill="#70768a" font-weight="400">cleaned[] · totals</text>
<text x="853" y="582" font-size="11" fill="#8a8da0" font-weight="400">空值处理 / 个人信息脱敏</text>
<text x="853" y="603" font-size="10" fill="#aaaabc" font-weight="400">03 / 代码</text>
<circle cx="840" cy="532" r="4.4" fill="#7766ff" stroke="#fff" stroke-width="1.5"/>
<circle cx="1150" cy="532.0" r="4.4" fill="#7766ff" stroke="#fff" stroke-width="1.5"/>
<rect x="1260" y="173" width="310" height="164" rx="8" fill="#e7e7f0" stroke="none" />
<rect x="1260" y="170" width="310" height="164" rx="8" fill="#fff" stroke="#dddeea" />
<rect x="1261" y="171" width="308" height="43" rx="7" fill="#f6f2fe" stroke="none" />
<rect x="1261" y="206" width="308" height="10" rx="0" fill="#f6f2fe" stroke="none" />
<rect x="1271" y="180" width="25" height="25" rx="5" fill="#4776ed" stroke="none" />
<text x="1275" y="198" font-size="13" fill="#fff" font-weight="600">&lt;/&gt;</text>
<text x="1304" y="198" font-size="14" fill="#333442" font-weight="500">分词与词频统计</text>
<text x="1541" y="195" font-size="17" fill="#9596a3" font-weight="400">···</text>
<text x="1273" y="235" font-size="11" fill="#a3a8b9" font-weight="400">输入</text>
<rect x="1308" y="219" width="244" height="24" rx="4" fill="#f3f4f8" stroke="none" />
<text x="1315" y="235" font-size="11" fill="#70768a" font-weight="400">cleaned[].text</text>
<text x="1273" y="267" font-size="11" fill="#a3a8b9" font-weight="400">输出</text>
<rect x="1308" y="251" width="244" height="24" rx="4" fill="#f3f4f8" stroke="none" />
<text x="1315" y="267" font-size="11" fill="#70768a" font-weight="400">frequencies[]</text>
<text x="1273" y="302" font-size="11" fill="#8a8da0" font-weight="400">分词 / 停用词过滤</text>
<text x="1273" y="323" font-size="10" fill="#aaaabc" font-weight="400">04 / 代码</text>
<circle cx="1570" cy="252.0" r="4.4" fill="#7766ff" stroke="#fff" stroke-width="1.5"/>
<circle cx="1260" cy="252" r="4.4" fill="#7766ff" stroke="#fff" stroke-width="1.5"/>
<rect x="1660" y="173" width="310" height="164" rx="8" fill="#e7e7f0" stroke="none" />
<rect x="1660" y="170" width="310" height="164" rx="8" fill="#fff" stroke="#dddeea" />
<rect x="1661" y="171" width="308" height="43" rx="7" fill="#f6f2fe" stroke="none" />
<rect x="1661" y="206" width="308" height="10" rx="0" fill="#f6f2fe" stroke="none" />
<rect x="1671" y="180" width="25" height="25" rx="5" fill="#8d62da" stroke="none" />
<text x="1675" y="198" font-size="13" fill="#fff" font-weight="600">✦</text>
<text x="1704" y="198" font-size="14" fill="#333442" font-weight="500">高频词整理</text>
<text x="1941" y="195" font-size="17" fill="#9596a3" font-weight="400">···</text>
<text x="1673" y="235" font-size="11" fill="#a3a8b9" font-weight="400">输入</text>
<rect x="1708" y="219" width="244" height="24" rx="4" fill="#f3f4f8" stroke="none" />
<text x="1715" y="235" font-size="11" fill="#70768a" font-weight="400">frequencies[]</text>
<text x="1673" y="267" font-size="11" fill="#a3a8b9" font-weight="400">输出</text>
<rect x="1708" y="251" width="244" height="24" rx="4" fill="#f3f4f8" stroke="none" />
<text x="1715" y="267" font-size="11" fill="#70768a" font-weight="400">wordcloud_input</text>
<text x="1673" y="302" font-size="11" fill="#8a8da0" font-weight="400">同义词归并 / 保留频次</text>
<text x="1673" y="323" font-size="10" fill="#aaaabc" font-weight="400">05 / 大模型</text>
<circle cx="1660" cy="252" r="4.4" fill="#7766ff" stroke="#fff" stroke-width="1.5"/>
<circle cx="1970" cy="252.0" r="4.4" fill="#7766ff" stroke="#fff" stroke-width="1.5"/>
<rect x="2060" y="173" width="310" height="164" rx="8" fill="#e7e7f0" stroke="none" />
<rect x="2060" y="170" width="310" height="164" rx="8" fill="#fff" stroke="#dddeea" />
<rect x="2061" y="171" width="308" height="43" rx="7" fill="#f6f2fe" stroke="none" />
<rect x="2061" y="206" width="308" height="10" rx="0" fill="#f6f2fe" stroke="none" />
<rect x="2071" y="180" width="25" height="25" rx="5" fill="#2588d8" stroke="none" />
<text x="2075" y="198" font-size="13" fill="#fff" font-weight="600">▤</text>
<text x="2104" y="198" font-size="14" fill="#333442" font-weight="500">WordCloud_generation</text>
<text x="2341" y="195" font-size="17" fill="#9596a3" font-weight="400">···</text>
<text x="2073" y="235" font-size="11" fill="#a3a8b9" font-weight="400">输入</text>
<rect x="2108" y="219" width="244" height="24" rx="4" fill="#f3f4f8" stroke="none" />
<text x="2115" y="235" font-size="11" fill="#70768a" font-weight="400">wordcloud_input</text>
<text x="2073" y="267" font-size="11" fill="#a3a8b9" font-weight="400">输出</text>
<rect x="2108" y="251" width="244" height="24" rx="4" fill="#f3f4f8" stroke="none" />
<text x="2115" y="267" font-size="11" fill="#70768a" font-weight="400">img_markdown</text>
<text x="2073" y="302" font-size="11" fill="#8a8da0" font-weight="400">沿用原词云生成支路</text>
<text x="2073" y="323" font-size="10" fill="#aaaabc" font-weight="400">06 / 插件</text>
<circle cx="2060" cy="252" r="4.4" fill="#7766ff" stroke="#fff" stroke-width="1.5"/>
<circle cx="2370" cy="252.0" r="4.4" fill="#7766ff" stroke="#fff" stroke-width="1.5"/>
<rect x="1260" y="453" width="310" height="164" rx="8" fill="#e7e7f0" stroke="none" />
<rect x="1260" y="450" width="310" height="164" rx="8" fill="#fff" stroke="#dddeea" />
<rect x="1261" y="451" width="308" height="43" rx="7" fill="#f6f2fe" stroke="none" />
<rect x="1261" y="486" width="308" height="10" rx="0" fill="#f6f2fe" stroke="none" />
<rect x="1271" y="460" width="25" height="25" rx="5" fill="#8d62da" stroke="none" />
<text x="1275" y="478" font-size="13" fill="#fff" font-weight="600">✦</text>
<text x="1304" y="478" font-size="14" fill="#333442" font-weight="500">评论情感分析</text>
<text x="1541" y="475" font-size="17" fill="#9596a3" font-weight="400">···</text>
<text x="1273" y="515" font-size="11" fill="#a3a8b9" font-weight="400">输入</text>
<rect x="1308" y="499" width="244" height="24" rx="4" fill="#f3f4f8" stroke="none" />
<text x="1315" y="515" font-size="11" fill="#70768a" font-weight="400">cleaned[]</text>
<text x="1273" y="547" font-size="11" fill="#a3a8b9" font-weight="400">输出</text>
<rect x="1308" y="531" width="244" height="24" rx="4" fill="#f3f4f8" stroke="none" />
<text x="1315" y="547" font-size="11" fill="#70768a" font-weight="400">sentiment_rows[]</text>
<text x="1273" y="582" font-size="11" fill="#8a8da0" font-weight="400">积极 / 中性 / 消极</text>
<text x="1273" y="603" font-size="10" fill="#aaaabc" font-weight="400">07 / 大模型</text>
<circle cx="1260" cy="532" r="4.4" fill="#7766ff" stroke="#fff" stroke-width="1.5"/>
<circle cx="1570" cy="532.0" r="4.4" fill="#7766ff" stroke="#fff" stroke-width="1.5"/>
<rect x="1660" y="453" width="310" height="164" rx="8" fill="#e7e7f0" stroke="none" />
<rect x="1660" y="450" width="310" height="164" rx="8" fill="#fff" stroke="#dddeea" />
<rect x="1661" y="451" width="308" height="43" rx="7" fill="#f6f2fe" stroke="none" />
<rect x="1661" y="486" width="308" height="10" rx="0" fill="#f6f2fe" stroke="none" />
<rect x="1671" y="460" width="25" height="25" rx="5" fill="#4776ed" stroke="none" />
<text x="1675" y="478" font-size="13" fill="#fff" font-weight="600">&lt;/&gt;</text>
<text x="1704" y="478" font-size="14" fill="#333442" font-weight="500">情绪分布统计</text>
<text x="1941" y="475" font-size="17" fill="#9596a3" font-weight="400">···</text>
<text x="1673" y="515" font-size="11" fill="#a3a8b9" font-weight="400">输入</text>
<rect x="1708" y="499" width="244" height="24" rx="4" fill="#f3f4f8" stroke="none" />
<text x="1715" y="515" font-size="11" fill="#70768a" font-weight="400">sentiment_rows[]</text>
<text x="1673" y="547" font-size="11" fill="#a3a8b9" font-weight="400">输出</text>
<rect x="1708" y="531" width="244" height="24" rx="4" fill="#f3f4f8" stroke="none" />
<text x="1715" y="547" font-size="11" fill="#70768a" font-weight="400">chart_data · totals</text>
<text x="1673" y="582" font-size="11" fill="#8a8da0" font-weight="400">计数 / 比例 / 未分类说明</text>
<text x="1673" y="603" font-size="10" fill="#aaaabc" font-weight="400">08 / 代码</text>
<circle cx="1970" cy="532.0" r="4.4" fill="#7766ff" stroke="#fff" stroke-width="1.5"/>
<circle cx="1660" cy="532" r="4.4" fill="#7766ff" stroke="#fff" stroke-width="1.5"/>
<rect x="2060" y="453" width="310" height="164" rx="8" fill="#e7e7f0" stroke="none" />
<rect x="2060" y="450" width="310" height="164" rx="8" fill="#fff" stroke="#dddeea" />
<rect x="2061" y="451" width="308" height="43" rx="7" fill="#f6f2fe" stroke="none" />
<rect x="2061" y="486" width="308" height="10" rx="0" fill="#f6f2fe" stroke="none" />
<rect x="2071" y="460" width="25" height="25" rx="5" fill="#2588d8" stroke="none" />
<text x="2075" y="478" font-size="13" fill="#fff" font-weight="600">▤</text>
<text x="2104" y="478" font-size="14" fill="#333442" font-weight="500">生成情感分析饼图</text>
<text x="2341" y="475" font-size="17" fill="#9596a3" font-weight="400">···</text>
<text x="2073" y="515" font-size="11" fill="#a3a8b9" font-weight="400">输入</text>
<rect x="2108" y="499" width="244" height="24" rx="4" fill="#f3f4f8" stroke="none" />
<text x="2115" y="515" font-size="11" fill="#70768a" font-weight="400">chart_data</text>
<text x="2073" y="547" font-size="11" fill="#a3a8b9" font-weight="400">输出</text>
<rect x="2108" y="531" width="244" height="24" rx="4" fill="#f3f4f8" stroke="none" />
<text x="2115" y="547" font-size="11" fill="#70768a" font-weight="400">emotion_chart</text>
<text x="2073" y="582" font-size="11" fill="#8a8da0" font-weight="400">沿用原图表支路</text>
<text x="2073" y="603" font-size="10" fill="#aaaabc" font-weight="400">09 / 插件</text>
<circle cx="2060" cy="532" r="4.4" fill="#7766ff" stroke="#fff" stroke-width="1.5"/>
<circle cx="2370" cy="532.0" r="4.4" fill="#7766ff" stroke="#fff" stroke-width="1.5"/>
<rect x="1260" y="733" width="310" height="164" rx="8" fill="#e7e7f0" stroke="none" />
<rect x="1260" y="730" width="310" height="164" rx="8" fill="#fff" stroke="#dddeea" />
<rect x="1261" y="731" width="308" height="43" rx="7" fill="#f6f2fe" stroke="none" />
<rect x="1261" y="766" width="308" height="10" rx="0" fill="#f6f2fe" stroke="none" />
<rect x="1271" y="740" width="25" height="25" rx="5" fill="#8d62da" stroke="none" />
<text x="1275" y="758" font-size="13" fill="#fff" font-weight="600">✦</text>
<text x="1304" y="758" font-size="14" fill="#333442" font-weight="500">问题主题归类</text>
<text x="1541" y="755" font-size="17" fill="#9596a3" font-weight="400">···</text>
<text x="1273" y="795" font-size="11" fill="#a3a8b9" font-weight="400">输入</text>
<rect x="1308" y="779" width="244" height="24" rx="4" fill="#f3f4f8" stroke="none" />
<text x="1315" y="795" font-size="11" fill="#70768a" font-weight="400">cleaned[]</text>
<text x="1273" y="827" font-size="11" fill="#a3a8b9" font-weight="400">输出</text>
<rect x="1308" y="811" width="244" height="24" rx="4" fill="#f3f4f8" stroke="none" />
<text x="1315" y="827" font-size="11" fill="#70768a" font-weight="400">topic_rows[]</text>
<text x="1273" y="862" font-size="11" fill="#8a8da0" font-weight="400">主题 / 诉求 / 原话 ID</text>
<text x="1273" y="883" font-size="10" fill="#aaaabc" font-weight="400">10 / 大模型</text>
<circle cx="1260" cy="812" r="4.4" fill="#7766ff" stroke="#fff" stroke-width="1.5"/>
<circle cx="1570" cy="812.0" r="4.4" fill="#7766ff" stroke="#fff" stroke-width="1.5"/>
<rect x="1660" y="733" width="310" height="164" rx="8" fill="#e7e7f0" stroke="none" />
<rect x="1660" y="730" width="310" height="164" rx="8" fill="#fff" stroke="#dddeea" />
<rect x="1661" y="731" width="308" height="43" rx="7" fill="#f6f2fe" stroke="none" />
<rect x="1661" y="766" width="308" height="10" rx="0" fill="#f6f2fe" stroke="none" />
<rect x="1671" y="740" width="25" height="25" rx="5" fill="#4776ed" stroke="none" />
<text x="1675" y="758" font-size="13" fill="#fff" font-weight="600">&lt;/&gt;</text>
<text x="1704" y="758" font-size="14" fill="#333442" font-weight="500">高频问题聚合</text>
<text x="1941" y="755" font-size="17" fill="#9596a3" font-weight="400">···</text>
<text x="1673" y="795" font-size="11" fill="#a3a8b9" font-weight="400">输入</text>
<rect x="1708" y="779" width="244" height="24" rx="4" fill="#f3f4f8" stroke="none" />
<text x="1715" y="795" font-size="11" fill="#70768a" font-weight="400">topic_rows[]</text>
<text x="1673" y="827" font-size="11" fill="#a3a8b9" font-weight="400">输出</text>
<rect x="1708" y="811" width="244" height="24" rx="4" fill="#f3f4f8" stroke="none" />
<text x="1715" y="827" font-size="11" fill="#70768a" font-weight="400">issues[] · evidence</text>
<text x="1673" y="862" font-size="11" fill="#8a8da0" font-weight="400">同类合并 / 条数排序</text>
<text x="1673" y="883" font-size="10" fill="#aaaabc" font-weight="400">11 / 代码</text>
<circle cx="1660" cy="812" r="4.4" fill="#7766ff" stroke="#fff" stroke-width="1.5"/>
<circle cx="1970" cy="812.0" r="4.4" fill="#7766ff" stroke="#fff" stroke-width="1.5"/>
<rect x="2060" y="733" width="310" height="164" rx="8" fill="#e7e7f0" stroke="none" />
<rect x="2060" y="730" width="310" height="164" rx="8" fill="#fff" stroke="#dddeea" />
<rect x="2061" y="731" width="308" height="43" rx="7" fill="#f6f2fe" stroke="none" />
<rect x="2061" y="766" width="308" height="10" rx="0" fill="#f6f2fe" stroke="none" />
<rect x="2071" y="740" width="25" height="25" rx="5" fill="#8d62da" stroke="none" />
<text x="2075" y="758" font-size="13" fill="#fff" font-weight="600">✦</text>
<text x="2104" y="758" font-size="14" fill="#333442" font-weight="500">问题报告与建议</text>
<text x="2341" y="755" font-size="17" fill="#9596a3" font-weight="400">···</text>
<text x="2073" y="795" font-size="11" fill="#a3a8b9" font-weight="400">输入</text>
<rect x="2108" y="779" width="244" height="24" rx="4" fill="#f3f4f8" stroke="none" />
<text x="2115" y="795" font-size="11" fill="#70768a" font-weight="400">issues[] · evidence</text>
<text x="2073" y="827" font-size="11" fill="#a3a8b9" font-weight="400">输出</text>
<rect x="2108" y="811" width="244" height="24" rx="4" fill="#f3f4f8" stroke="none" />
<text x="2115" y="827" font-size="11" fill="#70768a" font-weight="400">issue_report</text>
<text x="2073" y="862" font-size="11" fill="#8a8da0" font-weight="400">主要问题 / 依据 / 建议</text>
<text x="2073" y="883" font-size="10" fill="#aaaabc" font-weight="400">12 / 大模型</text>
<circle cx="2370" cy="812.0" r="4.4" fill="#7766ff" stroke="#fff" stroke-width="1.5"/>
<circle cx="2060" cy="812" r="4.4" fill="#7766ff" stroke="#fff" stroke-width="1.5"/>
<rect x="440" y="1023" width="310" height="164" rx="8" fill="#e7e7f0" stroke="none" />
<rect x="440" y="1020" width="310" height="164" rx="8" fill="#fff" stroke="#dddeea" />
<rect x="441" y="1021" width="308" height="43" rx="7" fill="#f6f2fe" stroke="none" />
<rect x="441" y="1056" width="308" height="10" rx="0" fill="#f6f2fe" stroke="none" />
<rect x="451" y="1030" width="25" height="25" rx="5" fill="#2588d8" stroke="none" />
<text x="455" y="1048" font-size="13" fill="#fff" font-weight="600">▤</text>
<text x="484" y="1048" font-size="14" fill="#333442" font-weight="500">读取公众号材料</text>
<text x="721" y="1045" font-size="17" fill="#9596a3" font-weight="400">···</text>
<text x="453" y="1085" font-size="11" fill="#a3a8b9" font-weight="400">输入</text>
<rect x="488" y="1069" width="244" height="24" rx="4" fill="#f3f4f8" stroke="none" />
<text x="495" y="1085" font-size="11" fill="#70768a" font-weight="400">contents</text>
<text x="453" y="1117" font-size="11" fill="#a3a8b9" font-weight="400">输出</text>
<rect x="488" y="1101" width="244" height="24" rx="4" fill="#f3f4f8" stroke="none" />
<text x="495" y="1117" font-size="11" fill="#70768a" font-weight="400">articles[]</text>
<text x="453" y="1152" font-size="11" fill="#8a8da0" font-weight="400">原 read_1 节点</text>
<text x="453" y="1173" font-size="10" fill="#aaaabc" font-weight="400">13 / 插件</text>
<circle cx="750" cy="1102.0" r="4.4" fill="#7766ff" stroke="#fff" stroke-width="1.5"/>
<circle cx="440" cy="1102" r="4.4" fill="#7766ff" stroke="#fff" stroke-width="1.5"/>
<rect x="840" y="1023" width="310" height="164" rx="8" fill="#e7e7f0" stroke="none" />
<rect x="840" y="1020" width="310" height="164" rx="8" fill="#fff" stroke="#dddeea" />
<rect x="841" y="1021" width="308" height="43" rx="7" fill="#f6f2fe" stroke="none" />
<rect x="841" y="1056" width="308" height="10" rx="0" fill="#f6f2fe" stroke="none" />
<rect x="851" y="1030" width="25" height="25" rx="5" fill="#8d62da" stroke="none" />
<text x="855" y="1048" font-size="13" fill="#fff" font-weight="600">✦</text>
<text x="884" y="1048" font-size="14" fill="#333442" font-weight="500">校园事件提取</text>
<text x="1121" y="1045" font-size="17" fill="#9596a3" font-weight="400">···</text>
<text x="853" y="1085" font-size="11" fill="#a3a8b9" font-weight="400">输入</text>
<rect x="888" y="1069" width="244" height="24" rx="4" fill="#f3f4f8" stroke="none" />
<text x="895" y="1085" font-size="11" fill="#70768a" font-weight="400">articles[]</text>
<text x="853" y="1117" font-size="11" fill="#a3a8b9" font-weight="400">输出</text>
<rect x="888" y="1101" width="244" height="24" rx="4" fill="#f3f4f8" stroke="none" />
<text x="895" y="1117" font-size="11" fill="#70768a" font-weight="400">events[] · sources</text>
<text x="853" y="1152" font-size="11" fill="#8a8da0" font-weight="400">时间 / 事件 / 来源</text>
<text x="853" y="1173" font-size="10" fill="#aaaabc" font-weight="400">14 / 大模型</text>
<circle cx="1150" cy="1102.0" r="4.4" fill="#7766ff" stroke="#fff" stroke-width="1.5"/>
<circle cx="840" cy="1102" r="4.4" fill="#7766ff" stroke="#fff" stroke-width="1.5"/>
<rect x="1260" y="1023" width="310" height="164" rx="8" fill="#e7e7f0" stroke="none" />
<rect x="1260" y="1020" width="310" height="164" rx="8" fill="#fff" stroke="#dddeea" />
<rect x="1261" y="1021" width="308" height="43" rx="7" fill="#f6f2fe" stroke="none" />
<rect x="1261" y="1056" width="308" height="10" rx="0" fill="#f6f2fe" stroke="none" />
<rect x="1271" y="1030" width="25" height="25" rx="5" fill="#8d62da" stroke="none" />
<text x="1275" y="1048" font-size="13" fill="#fff" font-weight="600">✦</text>
<text x="1304" y="1048" font-size="14" fill="#333442" font-weight="500">每周事件总结</text>
<text x="1541" y="1045" font-size="17" fill="#9596a3" font-weight="400">···</text>
<text x="1273" y="1085" font-size="11" fill="#a3a8b9" font-weight="400">输入</text>
<rect x="1308" y="1069" width="244" height="24" rx="4" fill="#f3f4f8" stroke="none" />
<text x="1315" y="1085" font-size="11" fill="#70768a" font-weight="400">events[] · sources</text>
<text x="1273" y="1117" font-size="11" fill="#a3a8b9" font-weight="400">输出</text>
<rect x="1308" y="1101" width="244" height="24" rx="4" fill="#f3f4f8" stroke="none" />
<text x="1315" y="1117" font-size="11" fill="#70768a" font-weight="400">weekly_digest</text>
<text x="1273" y="1152" font-size="11" fill="#8a8da0" font-weight="400">沿用原大事记支路</text>
<text x="1273" y="1173" font-size="10" fill="#aaaabc" font-weight="400">15 / 大模型</text>
<circle cx="1570" cy="1102.0" r="4.4" fill="#7766ff" stroke="#fff" stroke-width="1.5"/>
<circle cx="1260" cy="1102" r="4.4" fill="#7766ff" stroke="#fff" stroke-width="1.5"/>
<rect x="2590" y="553" width="310" height="164" rx="8" fill="#e7e7f0" stroke="none" />
<rect x="2590" y="550" width="310" height="164" rx="8" fill="#fff" stroke="#dddeea" />
<rect x="2591" y="551" width="308" height="43" rx="7" fill="#f6f2fe" stroke="none" />
<rect x="2591" y="586" width="308" height="10" rx="0" fill="#f6f2fe" stroke="none" />
<rect x="2601" y="560" width="25" height="25" rx="5" fill="#3e9aa9" stroke="none" />
<text x="2605" y="578" font-size="13" fill="#fff" font-weight="600">T</text>
<text x="2634" y="578" font-size="14" fill="#333442" font-weight="500">结果汇总与排版</text>
<text x="2871" y="575" font-size="17" fill="#9596a3" font-weight="400">···</text>
<text x="2603" y="615" font-size="11" fill="#a3a8b9" font-weight="400">输入</text>
<rect x="2638" y="599" width="244" height="24" rx="4" fill="#f3f4f8" stroke="none" />
<text x="2645" y="615" font-size="11" fill="#70768a" font-weight="400">四路分析结果</text>
<text x="2603" y="647" font-size="11" fill="#a3a8b9" font-weight="400">输出</text>
<rect x="2638" y="631" width="244" height="24" rx="4" fill="#f3f4f8" stroke="none" />
<text x="2645" y="647" font-size="11" fill="#70768a" font-weight="400">report_markdown</text>
<text x="2603" y="682" font-size="11" fill="#8a8da0" font-weight="400">词云 / 情绪 / 问题 / 大事记</text>
<text x="2603" y="703" font-size="10" fill="#aaaabc" font-weight="400">16 / 文本处理</text>
<circle cx="2900" cy="632.0" r="4.4" fill="#7766ff" stroke="#fff" stroke-width="1.5"/>
<circle cx="2590" cy="645" r="4.4" fill="#7766ff" stroke="#fff" stroke-width="1.5"/>
<circle cx="2590" cy="595" r="4.4" fill="#7766ff" stroke="#fff" stroke-width="1.5"/>
<circle cx="2590" cy="670" r="4.4" fill="#7766ff" stroke="#fff" stroke-width="1.5"/>
<circle cx="2590" cy="620" r="4.4" fill="#7766ff" stroke="#fff" stroke-width="1.5"/>
<rect x="3000" y="553" width="310" height="164" rx="8" fill="#e7e7f0" stroke="none" />
<rect x="3000" y="550" width="310" height="164" rx="8" fill="#fff" stroke="#dddeea" />
<rect x="3001" y="551" width="308" height="43" rx="7" fill="#f6f2fe" stroke="none" />
<rect x="3001" y="586" width="308" height="10" rx="0" fill="#f6f2fe" stroke="none" />
<rect x="3011" y="560" width="25" height="25" rx="5" fill="#6759ff" stroke="none" />
<text x="3015" y="578" font-size="13" fill="#fff" font-weight="600">↩</text>
<text x="3044" y="578" font-size="14" fill="#333442" font-weight="500">结束</text>
<text x="3281" y="575" font-size="17" fill="#9596a3" font-weight="400">···</text>
<text x="3013" y="615" font-size="11" fill="#a3a8b9" font-weight="400">输入</text>
<rect x="3048" y="599" width="244" height="24" rx="4" fill="#f3f4f8" stroke="none" />
<text x="3055" y="615" font-size="11" fill="#70768a" font-weight="400">report_markdown</text>
<text x="3013" y="647" font-size="11" fill="#a3a8b9" font-weight="400">输出</text>
<rect x="3048" y="631" width="244" height="24" rx="4" fill="#f3f4f8" stroke="none" />
<text x="3055" y="647" font-size="11" fill="#70768a" font-weight="400">output</text>
<text x="3013" y="682" font-size="11" fill="#8a8da0" font-weight="400">返回完整展示结果</text>
<text x="3013" y="703" font-size="10" fill="#aaaabc" font-weight="400">17 / 结束</text>
<circle cx="3000" cy="632" r="4.4" fill="#7766ff" stroke="#fff" stroke-width="1.5"/>
<text x="2602" y="763" font-size="13" fill="#8b85a2" font-weight="400">四路结果汇合</text>
<text x="2602" y="790" font-size="12" fill="#9b96aa" font-weight="400">词云 · 情绪图 · 问题报告 · 每周总结</text>
<rect x="0" y="1250" width="3420" height="40" rx="0" fill="#fff" stroke="none" />
<text x="28" y="1275" font-size="12" fill="#888c9e" font-weight="400">学生反馈洞察工作流 · 词云 / 情绪图 / 问题报告 / 校园大事记</text>
<text x="3115" y="1275" font-size="12" fill="#888c9e" font-weight="400">17 NODES  /  4 BRANCHES</text>
</g></svg>